# xmcd CD database file
# Copyright (C) 1993-1998 Ti Kan
# 
# Track frame offsets:
#     182
#     27392
#     54160
# 
# Disc length: 955 seconds
# 
# Revision: 1
# Processed by: cddbd v1.4b41PL1 Copyright (c) Steve Scherf et al.
# Submitted via: DiscPlay 4.0.4
# 
DISCID=1b03b903
DTITLE=Blue feather - Let's funk tonight (single)
DYEAR=1900
DGENRE=
TTITLE0=Let's funk tonight (remix)
TTITLE1=Let's funk tonight (original version)
TTITLE2=Let's funk tonight (instrumental version)
EXTD=
EXTT0=
EXTT1=
EXTT2=
PLAYORDER=
